  0
SECTION
  2
HEADER
  9
$ACADVER
  1
AC1009
  9
$FILLMODE
 70
0
  9
$EXTMIN
 10
-0.5829
 20
-14.2500
 30
0.0000
  9
$EXTMAX
 10
25.2500
 20
114.2500
 30
0.0000
  0
ENDSEC
  0
SECTION
  2
TABLES
  0
TABLE
  2
LTYPE
 70
1
  0
LTYPE
  2
CONTINUOUS
 70
64
  3
Solid line
 72
65
 73
0
 40
0
  0
ENDTAB
  0
TABLE
  2
LAYER
 70
255
  0
LAYER
  2
1
 70
64
 62
12
  6
CONTINUOUS
  0
LAYER
  2
16
 70
64
 62
132
  6
CONTINUOUS
  0
LAYER
  2
17
 70
64
 62
110
  6
CONTINUOUS
  0
LAYER
  2
18
 70
64
 62
110
  6
CONTINUOUS
  0
LAYER
  2
19
 70
64
 62
53
  6
CONTINUOUS
  0
LAYER
  2
20
 70
64
 62
31
  6
CONTINUOUS
  0
LAYER
  2
21
 70
64
 62
253
  6
CONTINUOUS
  0
LAYER
  2
22
 70
64
 62
253
  6
CONTINUOUS
  0
LAYER
  2
23
 70
64
 62
53
  6
CONTINUOUS
  0
LAYER
  2
24
 70
64
 62
53
  6
CONTINUOUS
  0
LAYER
  2
25
 70
64
 62
253
  6
CONTINUOUS
  0
LAYER
  2
26
 70
64
 62
253
  6
CONTINUOUS
  0
LAYER
  2
29
 70
64
 62
253
  6
CONTINUOUS
  0
LAYER
  2
39
 70
64
 62
12
  6
CONTINUOUS
  0
LAYER
  2
40
 70
64
 62
132
  6
CONTINUOUS
  0
LAYER
  2
41
 70
64
 62
12
  6
CONTINUOUS
  0
LAYER
  2
42
 70
64
 62
132
  6
CONTINUOUS
  0
LAYER
  2
43
 70
64
 62
110
  6
CONTINUOUS
  0
LAYER
  2
45
 70
64
 62
253
  6
CONTINUOUS
  0
LAYER
  2
48
 70
64
 62
253
  6
CONTINUOUS
  0
LAYER
  2
49
 70
64
 62
253
  6
CONTINUOUS
  0
LAYER
  2
51
 70
64
 62
253
  6
CONTINUOUS
  0
LAYER
  2
52
 70
64
 62
253
  6
CONTINUOUS
  0
ENDTAB
  0
ENDSEC
  0
SECTION
  2
BLOCKS
  0
BLOCK
  8
0
  2
RECT
 70
64
 10
0.0000
 20
0.0000
 30
0.0000
  3
RECT
  0
SOLID
  8
0
 10
-0.5000
 20
-0.5000
 30
0.0000
 11
0.5000
 21
-0.5000
 31
0.0000
 12
-0.5000
 22
0.5000
 32
0.0000
 13
0.5000
 23
0.5000
 33
0.0000
  0
ENDBLK
  8
0
  0
BLOCK
  8
0
  2
PIE
 70
64
 10
0.0000
 20
0.0000
 30
0.0000
  3
PIE
  0
CIRCLE
  8
0
 10
0.0000
 20
0.0000
 30
0.0000
 40
0.5000
  0
ENDBLK
  8
0
  0
BLOCK
  8
0
  2
OCTAGONP
 70
64
 10
0.0000
 20
0.0000
 30
0.0000
  3
OCTAGONP
  0
POLYLINE
  8
0
 66
1
 10
0.0000
 20
0.0000
 30
0.0000
 40
0.0000
 41
0.0000
 70
1
  0
VERTEX
  8
0
 10
-0.5000
 20
-0.2071
 30
0.0000
  0
VERTEX
  8
0
 10
-0.5000
 20
0.2071
 30
0.0000
  0
VERTEX
  8
0
 10
-0.2071
 20
0.5000
 30
0.0000
  0
VERTEX
  8
0
 10
0.2071
 20
0.5000
 30
0.0000
  0
VERTEX
  8
0
 10
0.5000
 20
0.2071
 30
0.0000
  0
VERTEX
  8
0
 10
0.5000
 20
-0.2071
 30
0.0000
  0
VERTEX
  8
0
 10
0.2071
 20
-0.5000
 30
0.0000
  0
VERTEX
  8
0
 10
-0.2071
 20
-0.5000
 30
0.0000
  0
SEQEND
  8
0
  0
ENDBLK
  8
0
  0
BLOCK
  8
0
  2
SQUAREP
 70
64
 10
0.0000
 20
0.0000
 30
0.0000
  3
SQUAREP
  0
SOLID
  8
0
 10
-0.5000
 20
-0.5000
 30
0.0000
 11
0.5000
 21
-0.5000
 31
0.0000
 12
-0.5000
 22
0.5000
 32
0.0000
 13
0.5000
 23
0.5000
 33
0.0000
  0
ENDBLK
  8
0
  0
BLOCK
  8
0
  2
ROUNDP
 70
64
 10
0.0000
 20
0.0000
 30
0.0000
  3
ROUNDP
  0
CIRCLE
  8
0
 10
0.0000
 20
0.0000
 30
0.0000
 40
0.5000
  0
ENDBLK
  8
0
  0
BLOCK
  8
0
  2
ANNULUSP
 70
64
 10
0.0000
 20
0.0000
 30
0.0000
  3
ANNULUSP
  0
CIRCLE
  8
0
 10
0.0000
 20
0.0000
 30
0.0000
 40
0.5000
  0
ENDBLK
  8
0
  0
BLOCK
  8
0
  2
THERMALP
 70
64
 10
0.0000
 20
0.0000
 30
0.0000
  3
THERMALP
  0
LINE
  8
0
 10
-0.2379
 20
0.4500
 30
0.0000
 11
0.2379
 21
0.4500
 31
0.0000
  0
LINE
  8
0
 10
0.4500
 20
0.2379
 30
0.0000
 11
0.4500
 21
-0.2379
 31
0.0000
  0
LINE
  8
0
 10
0.2379
 20
-0.4500
 30
0.0000
 11
-0.2379
 21
-0.4500
 31
0.0000
  0
LINE
  8
0
 10
-0.4500
 20
-0.2379
 30
0.0000
 11
-0.4500
 21
0.2379
 31
0.0000
  0
ENDBLK
  8
0
  0
BLOCK
  8
0
  2
OCTAGONV
 70
64
 10
0.0000
 20
0.0000
 30
0.0000
  3
OCTAGONV
  0
POLYLINE
  8
0
 66
1
 10
0.0000
 20
0.0000
 30
0.0000
 40
0.0000
 41
0.0000
 70
1
  0
VERTEX
  8
0
 10
-0.5000
 20
-0.2071
 30
0.0000
  0
VERTEX
  8
0
 10
-0.5000
 20
0.2071
 30
0.0000
  0
VERTEX
  8
0
 10
-0.2071
 20
0.5000
 30
0.0000
  0
VERTEX
  8
0
 10
0.2071
 20
0.5000
 30
0.0000
  0
VERTEX
  8
0
 10
0.5000
 20
0.2071
 30
0.0000
  0
VERTEX
  8
0
 10
0.5000
 20
-0.2071
 30
0.0000
  0
VERTEX
  8
0
 10
0.2071
 20
-0.5000
 30
0.0000
  0
VERTEX
  8
0
 10
-0.2071
 20
-0.5000
 30
0.0000
  0
SEQEND
  8
0
  0
ENDBLK
  8
0
  0
BLOCK
  8
0
  2
SQUAREV
 70
64
 10
0.0000
 20
0.0000
 30
0.0000
  3
SQUAREV
  0
SOLID
  8
0
 10
-0.5000
 20
-0.5000
 30
0.0000
 11
0.5000
 21
-0.5000
 31
0.0000
 12
-0.5000
 22
0.5000
 32
0.0000
 13
0.5000
 23
0.5000
 33
0.0000
  0
ENDBLK
  8
0
  0
BLOCK
  8
0
  2
ROUNDV
 70
64
 10
0.0000
 20
0.0000
 30
0.0000
  3
ROUNDV
  0
CIRCLE
  8
0
 10
0.0000
 20
0.0000
 30
0.0000
 40
0.5000
  0
ENDBLK
  8
0
  0
BLOCK
  8
0
  2
ANNULUSV
 70
64
 10
0.0000
 20
0.0000
 30
0.0000
  3
ANNULUSV
  0
CIRCLE
  8
0
 10
0.0000
 20
0.0000
 30
0.0000
 40
0.5000
  0
ENDBLK
  8
0
  0
BLOCK
  8
0
  2
THERMALV
 70
64
 10
0.0000
 20
0.0000
 30
0.0000
  3
THERMALV
  0
LINE
  8
0
 10
-0.2379
 20
0.4500
 30
0.0000
 11
0.2379
 21
0.4500
 31
0.0000
  0
LINE
  8
0
 10
0.4500
 20
0.2379
 30
0.0000
 11
0.4500
 21
-0.2379
 31
0.0000
  0
LINE
  8
0
 10
0.2379
 20
-0.4500
 30
0.0000
 11
-0.2379
 21
-0.4500
 31
0.0000
  0
LINE
  8
0
 10
-0.4500
 20
-0.2379
 30
0.0000
 11
-0.4500
 21
0.2379
 31
0.0000
  0
ENDBLK
  8
0
  0
ENDSEC
  0
SECTION
  2
ENTITIES
  0
LINE
  8
20
 10
0.0000
 20
-14.2500
 30
0.0000
 11
25.2500
 21
-14.2500
 31
0.0000
  0
LINE
  8
20
 10
25.2500
 20
-14.2500
 30
0.0000
 11
25.2500
 21
114.2500
 31
0.0000
  0
LINE
  8
20
 10
25.2500
 20
114.2500
 30
0.0000
 11
0.0000
 21
114.2500
 31
0.0000
  0
LINE
  8
20
 10
0.0000
 20
114.2500
 30
0.0000
 11
0.0000
 21
-14.2500
 31
0.0000
  0
LINE
  8
1
 10
9.6124
 20
-12.6002
 30
0.0000
 11
9.6124
 21
-9.3998
 31
0.0000
  0
LINE
  8
1
 10
9.6124
 20
-9.3998
 30
0.0000
 11
11.0348
 21
-9.3998
 31
0.0000
  0
LINE
  8
1
 10
9.6124
 20
-10.8222
 30
0.0000
 11
11.0348
 21
-10.8222
 31
0.0000
  0
LINE
  8
1
 10
12.3069
 20
-9.3998
 30
0.0000
 11
12.3069
 21
-12.6002
 31
0.0000
  0
LINE
  8
1
 10
11.9513
 20
-12.6002
 30
0.0000
 11
12.6625
 21
-12.6002
 31
0.0000
  0
LINE
  8
1
 10
11.9513
 20
-9.3998
 30
0.0000
 11
12.6625
 21
-9.3998
 31
0.0000
  0
LINE
  8
1
 10
15.2258
 20
-12.6002
 30
0.0000
 11
13.8034
 21
-12.6002
 31
0.0000
  0
LINE
  8
1
 10
13.8034
 20
-12.6002
 30
0.0000
 11
13.8034
 21
-9.3998
 31
0.0000
  0
LINE
  8
1
 10
13.8034
 20
-9.3998
 30
0.0000
 11
15.2258
 21
-9.3998
 31
0.0000
  0
LINE
  8
1
 10
13.8034
 20
-10.8222
 30
0.0000
 11
14.8702
 21
-10.8222
 31
0.0000
  0
LINE
  8
1
 10
16.2799
 20
-9.3998
 30
0.0000
 11
16.2799
 21
-12.6002
 31
0.0000
  0
LINE
  8
1
 10
16.2799
 20
-12.6002
 30
0.0000
 11
17.7023
 21
-12.6002
 31
0.0000
  0
LINE
  8
1
 10
18.7521
 20
-12.6002
 30
0.0000
 11
18.7521
 21
-9.3998
 31
0.0000
  0
LINE
  8
1
 10
18.7521
 20
-9.3998
 30
0.0000
 11
19.6411
 21
-9.3998
 31
0.0000
  0
ARC
  8
1
 10
19.6411
 20
-10.2888
 30
0.0000
 40
0.8890
 50
0.0000
 51
90.0000
  0
LINE
  8
1
 10
20.5301
 20
-10.2888
 30
0.0000
 11
20.5301
 21
-11.7112
 31
0.0000
  0
ARC
  8
1
 10
19.6411
 20
-11.7112
 30
0.0000
 40
0.8890
 50
270.0000
 51
0.0000
  0
LINE
  8
1
 10
19.6411
 20
-12.6002
 30
0.0000
 11
18.7521
 21
-12.6002
 31
0.0000
  0
ARC
  8
1
 10
22.6764
 20
-11.8890
 30
0.0000
 40
0.7112
 50
270.0000
 51
0.0000
  0
ARC
  8
1
 10
22.6764
 20
-11.0978
 30
0.0000
 40
1.5024
 50
224.7603
 51
270.0000
  0
ARC
  8
1
 10
22.4097
 20
-10.1110
 30
0.0000
 40
0.7112
 50
90.0000
 51
180.0000
  0
ARC
  8
1
 10
22.4097
 20
-10.7333
 30
0.0000
 40
1.3335
 50
53.1301
 51
90.0000
  0
ARC
  8
1
 10
22.4208
 20
-10.1110
 30
0.0000
 40
0.7223
 50
180.0000
 51
239.4898
  0
ARC
  8
1
 10
22.6653
 20
-11.8890
 30
0.0000
 40
0.7223
 50
360.0000
 51
59.4898
  0
LINE
  8
1
 10
23.0320
 20
-11.2667
 30
0.0000
 11
22.0541
 21
-10.7333
 31
0.0000
  0
LINE
  8
29
 10
9.6124
 20
-12.6002
 30
0.0000
 11
9.6124
 21
-9.3998
 31
0.0000
  0
LINE
  8
29
 10
9.6124
 20
-9.3998
 30
0.0000
 11
11.0348
 21
-9.3998
 31
0.0000
  0
LINE
  8
29
 10
9.6124
 20
-10.8222
 30
0.0000
 11
11.0348
 21
-10.8222
 31
0.0000
  0
LINE
  8
29
 10
12.3069
 20
-9.3998
 30
0.0000
 11
12.3069
 21
-12.6002
 31
0.0000
  0
LINE
  8
29
 10
11.9513
 20
-12.6002
 30
0.0000
 11
12.6625
 21
-12.6002
 31
0.0000
  0
LINE
  8
29
 10
11.9513
 20
-9.3998
 30
0.0000
 11
12.6625
 21
-9.3998
 31
0.0000
  0
LINE
  8
29
 10
15.2258
 20
-12.6002
 30
0.0000
 11
13.8034
 21
-12.6002
 31
0.0000
  0
LINE
  8
29
 10
13.8034
 20
-12.6002
 30
0.0000
 11
13.8034
 21
-9.3998
 31
0.0000
  0
LINE
  8
29
 10
13.8034
 20
-9.3998
 30
0.0000
 11
15.2258
 21
-9.3998
 31
0.0000
  0
LINE
  8
29
 10
13.8034
 20
-10.8222
 30
0.0000
 11
14.8702
 21
-10.8222
 31
0.0000
  0
LINE
  8
29
 10
16.2799
 20
-9.3998
 30
0.0000
 11
16.2799
 21
-12.6002
 31
0.0000
  0
LINE
  8
29
 10
16.2799
 20
-12.6002
 30
0.0000
 11
17.7023
 21
-12.6002
 31
0.0000
  0
LINE
  8
29
 10
18.7521
 20
-12.6002
 30
0.0000
 11
18.7521
 21
-9.3998
 31
0.0000
  0
LINE
  8
29
 10
18.7521
 20
-9.3998
 30
0.0000
 11
19.6411
 21
-9.3998
 31
0.0000
  0
ARC
  8
29
 10
19.6411
 20
-10.2888
 30
0.0000
 40
0.8890
 50
0.0000
 51
90.0000
  0
LINE
  8
29
 10
20.5301
 20
-10.2888
 30
0.0000
 11
20.5301
 21
-11.7112
 31
0.0000
  0
ARC
  8
29
 10
19.6411
 20
-11.7112
 30
0.0000
 40
0.8890
 50
270.0000
 51
0.0000
  0
LINE
  8
29
 10
19.6411
 20
-12.6002
 30
0.0000
 11
18.7521
 21
-12.6002
 31
0.0000
  0
ARC
  8
29
 10
22.6764
 20
-11.8890
 30
0.0000
 40
0.7112
 50
270.0000
 51
0.0000
  0
ARC
  8
29
 10
22.6764
 20
-11.0978
 30
0.0000
 40
1.5024
 50
224.7603
 51
270.0000
  0
ARC
  8
29
 10
22.4097
 20
-10.1110
 30
0.0000
 40
0.7112
 50
90.0000
 51
180.0000
  0
ARC
  8
29
 10
22.4097
 20
-10.7333
 30
0.0000
 40
1.3335
 50
53.1301
 51
90.0000
  0
ARC
  8
29
 10
22.4208
 20
-10.1110
 30
0.0000
 40
0.7223
 50
180.0000
 51
239.4898
  0
ARC
  8
29
 10
22.6653
 20
-11.8890
 30
0.0000
 40
0.7223
 50
360.0000
 51
59.4898
  0
LINE
  8
29
 10
23.0320
 20
-11.2667
 30
0.0000
 11
22.0541
 21
-10.7333
 31
0.0000
  0
LINE
  8
21
 10
1.5154
 20
95.0668
 30
0.0000
 11
1.5154
 21
92.9332
 31
0.0000
  0
LINE
  8
21
 10
1.2783
 20
92.9332
 30
0.0000
 11
1.7525
 21
92.9332
 31
0.0000
  0
LINE
  8
21
 10
1.2783
 20
95.0668
 30
0.0000
 11
1.7525
 21
95.0668
 31
0.0000
  0
LINE
  8
21
 10
2.6420
 20
92.9332
 30
0.0000
 11
2.6420
 21
94.3556
 31
0.0000
  0
LINE
  8
21
 10
2.6420
 20
94.3556
 30
0.0000
 11
3.2346
 21
94.3556
 31
0.0000
  0
ARC
  8
21
 10
3.2346
 20
94.0000
 30
0.0000
 40
0.3556
 50
0.0000
 51
90.0000
  0
LINE
  8
21
 10
3.5902
 20
94.0000
 30
0.0000
 11
3.5902
 21
92.9332
 31
0.0000
  0
LINE
  8
21
 10
4.6019
 20
92.2220
 30
0.0000
 11
4.6019
 21
94.3556
 31
0.0000
  0
LINE
  8
21
 10
4.6019
 20
94.3556
 30
0.0000
 11
5.1946
 21
94.3556
 31
0.0000
  0
ARC
  8
21
 10
5.1946
 20
94.0000
 30
0.0000
 40
0.3556
 50
0.0000
 51
90.0000
  0
LINE
  8
21
 10
5.5502
 20
94.0000
 30
0.0000
 11
5.5502
 21
93.2888
 31
0.0000
  0
ARC
  8
21
 10
5.1946
 20
93.2888
 30
0.0000
 40
0.3556
 50
270.0000
 51
0.0000
  0
LINE
  8
21
 10
5.1946
 20
92.9332
 30
0.0000
 11
4.6019
 21
92.9332
 31
0.0000
  0
LINE
  8
21
 10
6.4697
 20
94.3556
 30
0.0000
 11
6.4697
 21
93.2888
 31
0.0000
  0
ARC
  8
21
 10
6.8253
 20
93.2888
 30
0.0000
 40
0.3556
 50
180.0000
 51
270.0000
  0
LINE
  8
21
 10
6.8253
 20
92.9332
 30
0.0000
 11
7.4180
 21
92.9332
 31
0.0000
  0
LINE
  8
21
 10
7.4180
 20
92.9332
 30
0.0000
 11
7.4180
 21
94.3556
 31
0.0000
  0
LINE
  8
21
 10
8.1705
 20
94.3556
 30
0.0000
 11
8.8817
 21
94.3556
 31
0.0000
  0
LINE
  8
21
 10
8.4075
 20
95.0668
 30
0.0000
 11
8.4075
 21
93.2888
 31
0.0000
  0
ARC
  8
21
 10
8.7631
 20
93.2888
 30
0.0000
 40
0.3556
 50
180.0000
 51
270.0000
  0
LINE
  8
21
 10
8.7631
 20
92.9332
 30
0.0000
 11
8.8817
 21
92.9332
 31
0.0000
  0
LINE
  8
21
 10
1.4152
 20
58.9332
 30
0.0000
 11
0.9411
 21
58.9332
 31
0.0000
  0
ARC
  8
21
 10
0.9411
 20
59.4073
 30
0.0000
 40
0.4741
 50
180.0000
 51
270.0000
  0
LINE
  8
21
 10
0.4670
 20
59.4073
 30
0.0000
 11
0.4670
 21
60.5927
 31
0.0000
  0
ARC
  8
21
 10
0.9411
 20
60.5927
 30
0.0000
 40
0.4741
 50
90.0000
 51
180.0000
  0
LINE
  8
21
 10
0.9411
 20
61.0668
 30
0.0000
 11
1.4152
 21
61.0668
 31
0.0000
  0
LINE
  8
21
 10
3.1284
 20
59.7629
 30
0.0000
 11
2.5950
 21
59.7629
 31
0.0000
  0
ARC
  8
21
 10
2.5950
 20
59.3481
 30
0.0000
 40
0.4149
 50
90.0000
 51
270.0000
  0
LINE
  8
21
 10
2.5950
 20
58.9332
 30
0.0000
 11
3.1284
 21
58.9332
 31
0.0000
  0
LINE
  8
21
 10
3.1284
 20
58.9332
 30
0.0000
 11
3.1284
 21
60.0000
 31
0.0000
  0
ARC
  8
21
 10
2.7728
 20
60.0000
 30
0.0000
 40
0.3556
 50
0.0000
 51
90.0000
  0
LINE
  8
21
 10
2.7728
 20
60.3556
 30
0.0000
 11
2.2987
 21
60.3556
 31
0.0000
  0
LINE
  8
21
 10
4.1542
 20
58.9332
 30
0.0000
 11
4.1542
 21
60.3556
 31
0.0000
  0
LINE
  8
21
 10
4.1542
 20
60.3556
 30
0.0000
 11
4.8654
 21
60.3556
 31
0.0000
  0
LINE
  8
21
 10
4.8654
 20
60.3556
 30
0.0000
 11
4.8654
 21
60.1185
 31
0.0000
  0
LINE
  8
21
 10
5.6157
 20
58.9332
 30
0.0000
 11
5.6157
 21
60.3556
 31
0.0000
  0
LINE
  8
21
 10
5.6157
 20
60.3556
 30
0.0000
 11
6.3269
 21
60.3556
 31
0.0000
  0
LINE
  8
21
 10
6.3269
 20
60.3556
 30
0.0000
 11
6.3269
 21
60.1185
 31
0.0000
  0
LINE
  8
21
 10
6.9805
 20
58.9332
 30
0.0000
 11
6.9805
 21
60.3556
 31
0.0000
  0
LINE
  8
21
 10
6.9212
 20
60.9483
 30
0.0000
 11
6.9212
 21
61.0668
 31
0.0000
  0
LINE
  8
21
 10
6.9212
 20
61.0668
 30
0.0000
 11
7.0397
 21
61.0668
 31
0.0000
  0
LINE
  8
21
 10
7.0397
 20
61.0668
 30
0.0000
 11
7.0397
 21
60.9483
 31
0.0000
  0
LINE
  8
21
 10
7.0397
 20
60.9483
 30
0.0000
 11
6.9212
 21
60.9483
 31
0.0000
  0
LINE
  8
21
 10
8.7769
 20
58.9332
 30
0.0000
 11
8.1843
 21
58.9332
 31
0.0000
  0
ARC
  8
21
 10
8.1843
 20
59.2888
 30
0.0000
 40
0.3556
 50
180.0000
 51
270.0000
  0
LINE
  8
21
 10
7.8287
 20
59.2888
 30
0.0000
 11
7.8287
 21
59.8815
 31
0.0000
  0
ARC
  8
21
 10
8.3028
 20
59.8815
 30
0.0000
 40
0.4741
 50
0.0000
 51
180.0000
  0
LINE
  8
21
 10
8.7769
 20
59.8815
 30
0.0000
 11
8.7769
 21
59.6444
 31
0.0000
  0
LINE
  8
21
 10
8.7769
 20
59.6444
 30
0.0000
 11
7.8287
 21
59.6444
 31
0.0000
  0
LINE
  8
21
 10
9.7218
 20
58.9332
 30
0.0000
 11
9.7218
 21
60.3556
 31
0.0000
  0
LINE
  8
21
 10
9.7218
 20
60.3556
 30
0.0000
 11
10.4330
 21
60.3556
 31
0.0000
  0
LINE
  8
21
 10
10.4330
 20
60.3556
 30
0.0000
 11
10.4330
 21
60.1185
 31
0.0000
  0
LINE
  8
21
 10
7.7575
 20
30.9332
 30
0.0000
 11
7.7575
 21
33.0668
 31
0.0000
  0
LINE
  8
21
 10
7.7575
 20
33.0668
 30
0.0000
 11
8.3501
 21
33.0668
 31
0.0000
  0
ARC
  8
21
 10
8.3501
 20
32.4741
 30
0.0000
 40
0.5927
 50
270.0000
 51
90.0000
  0
LINE
  8
21
 10
8.3501
 20
31.8815
 30
0.0000
 11
7.7575
 21
31.8815
 31
0.0000
  0
LINE
  8
21
 10
8.9428
 20
30.9332
 30
0.0000
 11
8.4687
 21
31.8815
 31
0.0000
  0
LINE
  8
21
 10
10.7589
 20
30.9332
 30
0.0000
 11
10.1662
 21
30.9332
 31
0.0000
  0
ARC
  8
21
 10
10.1662
 20
31.2888
 30
0.0000
 40
0.3556
 50
180.0000
 51
270.0000
  0
LINE
  8
21
 10
9.8106
 20
31.2888
 30
0.0000
 11
9.8106
 21
31.8815
 31
0.0000
  0
ARC
  8
21
 10
10.2848
 20
31.8815
 30
0.0000
 40
0.4741
 50
0.0000
 51
180.0000
  0
LINE
  8
21
 10
10.7589
 20
31.8815
 30
0.0000
 11
10.7589
 21
31.6444
 31
0.0000
  0
LINE
  8
21
 10
10.7589
 20
31.6444
 30
0.0000
 11
9.8106
 21
31.6444
 31
0.0000
  0
LINE
  8
21
 10
11.5222
 20
30.9332
 30
0.0000
 11
12.2334
 21
33.0668
 31
0.0000
  0
LINE
  8
21
 10
12.2334
 20
33.0668
 30
0.0000
 11
12.9446
 21
30.9332
 31
0.0000
  0
LINE
  8
21
 10
12.7668
 20
31.4666
 30
0.0000
 11
11.7000
 21
31.4666
 31
0.0000
  0
LINE
  8
21
 10
13.8189
 20
30.9332
 30
0.0000
 11
13.8189
 21
32.3556
 31
0.0000
  0
LINE
  8
21
 10
13.8189
 20
32.3556
 30
0.0000
 11
14.8857
 21
32.3556
 31
0.0000
  0
ARC
  8
21
 10
14.8857
 20
32.0000
 30
0.0000
 40
0.3556
 50
0.0000
 51
90.0000
  0
LINE
  8
21
 10
15.2413
 20
32.0000
 30
0.0000
 11
15.2413
 21
30.9332
 31
0.0000
  0
LINE
  8
21
 10
14.5301
 20
30.9332
 30
0.0000
 11
14.5301
 21
32.3556
 31
0.0000
  0
LINE
  8
21
 10
16.2943
 20
30.2220
 30
0.0000
 11
16.2943
 21
32.3556
 31
0.0000
  0
LINE
  8
21
 10
16.2943
 20
32.3556
 30
0.0000
 11
16.8869
 21
32.3556
 31
0.0000
  0
ARC
  8
21
 10
16.8869
 20
32.0000
 30
0.0000
 40
0.3556
 50
0.0000
 51
90.0000
  0
LINE
  8
21
 10
17.2425
 20
32.0000
 30
0.0000
 11
17.2425
 21
31.2888
 31
0.0000
  0
ARC
  8
21
 10
16.8869
 20
31.2888
 30
0.0000
 40
0.3556
 50
270.0000
 51
0.0000
  0
LINE
  8
21
 10
16.8869
 20
30.9332
 30
0.0000
 11
16.2943
 21
30.9332
 31
0.0000
  0
LINE
  8
21
 10
7.8506
 20
-3.0141
 30
0.0000
 11
7.8506
 21
-2.0659
 31
0.0000
  0
ARC
  8
21
 10
8.4432
 20
-2.0659
 30
0.0000
 40
0.5927
 50
0.0000
 51
180.0000
  0
LINE
  8
21
 10
9.0359
 20
-2.0659
 30
0.0000
 11
9.0359
 21
-3.0141
 31
0.0000
  0
ARC
  8
21
 10
8.4432
 20
-3.0141
 30
0.0000
 40
0.5927
 50
180.0000
 51
0.0000
  0
LINE
  8
21
 10
9.9874
 20
-2.1844
 30
0.0000
 11
9.9874
 21
-3.2512
 31
0.0000
  0
ARC
  8
21
 10
10.3430
 20
-3.2512
 30
0.0000
 40
0.3556
 50
180.0000
 51
270.0000
  0
LINE
  8
21
 10
10.3430
 20
-3.6068
 30
0.0000
 11
10.9357
 21
-3.6068
 31
0.0000
  0
LINE
  8
21
 10
10.9357
 20
-3.6068
 30
0.0000
 11
10.9357
 21
-2.1844
 31
0.0000
  0
LINE
  8
21
 10
11.6881
 20
-2.1844
 30
0.0000
 11
12.3993
 21
-2.1844
 31
0.0000
  0
LINE
  8
21
 10
11.9252
 20
-1.4732
 30
0.0000
 11
11.9252
 21
-3.2512
 31
0.0000
  0
ARC
  8
21
 10
12.2808
 20
-3.2512
 30
0.0000
 40
0.3556
 50
180.0000
 51
270.0000
  0
LINE
  8
21
 10
12.2808
 20
-3.6068
 30
0.0000
 11
12.3993
 21
-3.6068
 31
0.0000
  0
LINE
  8
21
 10
13.2696
 20
-4.3180
 30
0.0000
 11
13.2696
 21
-2.1844
 31
0.0000
  0
LINE
  8
21
 10
13.2696
 20
-2.1844
 30
0.0000
 11
13.8623
 21
-2.1844
 31
0.0000
  0
ARC
  8
21
 10
13.8623
 20
-2.5400
 30
0.0000
 40
0.3556
 50
0.0000
 51
90.0000
  0
LINE
  8
21
 10
14.2179
 20
-2.5400
 30
0.0000
 11
14.2179
 21
-3.2512
 31
0.0000
  0
ARC
  8
21
 10
13.8623
 20
-3.2512
 30
0.0000
 40
0.3556
 50
270.0000
 51
0.0000
  0
LINE
  8
21
 10
13.8623
 20
-3.6068
 30
0.0000
 11
13.2696
 21
-3.6068
 31
0.0000
  0
LINE
  8
21
 10
15.1375
 20
-2.1844
 30
0.0000
 11
15.1375
 21
-3.2512
 31
0.0000
  0
ARC
  8
21
 10
15.4931
 20
-3.2512
 30
0.0000
 40
0.3556
 50
180.0000
 51
270.0000
  0
LINE
  8
21
 10
15.4931
 20
-3.6068
 30
0.0000
 11
16.0858
 21
-3.6068
 31
0.0000
  0
LINE
  8
21
 10
16.0858
 20
-3.6068
 30
0.0000
 11
16.0858
 21
-2.1844
 31
0.0000
  0
LINE
  8
21
 10
16.8382
 20
-2.1844
 30
0.0000
 11
17.5494
 21
-2.1844
 31
0.0000
  0
LINE
  8
21
 10
17.0753
 20
-1.4732
 30
0.0000
 11
17.0753
 21
-3.2512
 31
0.0000
  0
ARC
  8
21
 10
17.4309
 20
-3.2512
 30
0.0000
 40
0.3556
 50
180.0000
 51
270.0000
  0
LINE
  8
21
 10
17.4309
 20
-3.6068
 30
0.0000
 11
17.5494
 21
-3.6068
 31
0.0000
  0
CIRCLE
  8
20
 10
5.0800
 20
-11.2500
 30
0.0000
 40
1.6000
  0
CIRCLE
  8
29
 10
5.0800
 20
-11.2500
 30
0.0000
 40
1.7016
  0
CIRCLE
  8
20
 10
5.0800
 20
111.2500
 30
0.0000
 40
1.6000
  0
CIRCLE
  8
29
 10
5.0800
 20
111.2500
 30
0.0000
 40
1.7016
  0
POINT
  8
23
 10
16.5000
 20
94.0000
 30
0.0000
  0
ARC
  8
20
 10
16.4641
 20
94.0000
 30
0.0000
 40
4.1447
 50
130.0000
 51
230.0000
  0
LINE
  8
20
 10
13.8000
 20
97.1750
 30
0.0000
 11
19.2000
 21
97.1750
 31
0.0000
  0
LINE
  8
20
 10
13.8000
 20
90.8250
 30
0.0000
 11
19.2000
 21
90.8250
 31
0.0000
  0
ARC
  8
20
 10
16.5359
 20
94.0000
 30
0.0000
 40
4.1447
 50
310.0000
 51
50.0000
  0
CIRCLE
  8
49
 10
16.5000
 20
94.0000
 30
0.0000
 40
5.5515
  0
POINT
  8
23
 10
16.5000
 20
60.0000
 30
0.0000
  0
ARC
  8
20
 10
16.4641
 20
60.0000
 30
0.0000
 40
4.1447
 50
130.0000
 51
230.0000
  0
LINE
  8
20
 10
13.8000
 20
63.1750
 30
0.0000
 11
19.2000
 21
63.1750
 31
0.0000
  0
LINE
  8
20
 10
13.8000
 20
56.8250
 30
0.0000
 11
19.2000
 21
56.8250
 31
0.0000
  0
ARC
  8
20
 10
16.5359
 20
60.0000
 30
0.0000
 40
4.1447
 50
310.0000
 51
50.0000
  0
CIRCLE
  8
49
 10
16.5000
 20
60.0000
 30
0.0000
 40
5.5515
  0
POINT
  8
23
 10
12.5000
 20
6.0000
 30
0.0000
  0
ARC
  8
20
 10
12.4641
 20
6.0000
 30
0.0000
 40
4.1447
 50
130.0000
 51
230.0000
  0
LINE
  8
20
 10
9.8000
 20
9.1750
 30
0.0000
 11
15.2000
 21
9.1750
 31
0.0000
  0
LINE
  8
20
 10
9.8000
 20
2.8250
 30
0.0000
 11
15.2000
 21
2.8250
 31
0.0000
  0
ARC
  8
20
 10
12.5359
 20
6.0000
 30
0.0000
 40
4.1447
 50
310.0000
 51
50.0000
  0
CIRCLE
  8
49
 10
12.5000
 20
6.0000
 30
0.0000
 40
5.5515
  0
POINT
  8
23
 10
8.5000
 20
77.0000
 30
0.0000
  0
CIRCLE
  8
49
 10
8.5000
 20
77.0000
 30
0.0000
 40
6.0000
  0
CIRCLE
  8
20
 10
8.5000
 20
77.0000
 30
0.0000
 40
3.6000
  0
CIRCLE
  8
29
 10
8.5000
 20
77.0000
 30
0.0000
 40
3.7016
  0
POINT
  8
23
 10
8.5000
 20
43.0000
 30
0.0000
  0
CIRCLE
  8
49
 10
8.5000
 20
43.0000
 30
0.0000
 40
6.0000
  0
CIRCLE
  8
20
 10
8.5000
 20
43.0000
 30
0.0000
 40
3.6000
  0
CIRCLE
  8
29
 10
8.5000
 20
43.0000
 30
0.0000
 40
3.7016
  0
POINT
  8
23
 10
12.5000
 20
23.0000
 30
0.0000
  0
CIRCLE
  8
49
 10
12.5000
 20
23.0000
 30
0.0000
 40
6.0000
  0
CIRCLE
  8
20
 10
12.5000
 20
23.0000
 30
0.0000
 40
3.6000
  0
CIRCLE
  8
29
 10
12.5000
 20
23.0000
 30
0.0000
 40
3.7016
  0
ENDSEC
  0
EOF
